<?xml version="1.0" standalone="no"?><!DOCTYPE svg PUBLIC "-//W3C//DTD SVG 1.1//EN" "http://www.w3.org/Graphics/SVG/1.1/DTD/svg11.dtd"><svg t="1713431953719" class="icon" viewBox="0 0 1024 1024" version="1.1" xmlns="http://www.w3.org/2000/svg" p-id="23335" xmlns:xlink="http://www.w3.org/1999/xlink" width="64" height="64"><path d="M848.08 112c34.949 0 63.347 28.049 63.911 62.863l0.009 1.057v672.16c0 34.949-28.049 63.347-62.863 63.911l-1.057 0.009H175.92c-34.949 0-63.347-28.049-63.911-62.863L112 848.08V175.92c0-34.949 28.049-63.347 62.863-63.911l1.057-0.009h672.16z m0 278.652H175.92V848.08h672.16V390.652zM353.62 457.136c23.02 20.131 25.567 54.963 5.885 78.219l-0.604 0.701-68.928 78.815 68.928 78.816c20.132 23.019 18.016 57.88-4.59 78.305l-0.69 0.615-119.549-136.696c-10.536-12.048-10.536-30.032 0-42.08l119.548-136.695z m315.982 0l119.548 136.696c10.43 11.927 10.535 29.672 0.313 41.716l-0.313 0.363-119.548 136.696c-23.019-20.132-25.567-54.964-5.884-78.22l0.603-0.7 68.929-78.816-68.929-78.815c-20.132-23.02-18.015-57.88 4.59-78.306l0.691-0.614z m-88.262 19.204l0.888 0.258-71.802 239.068c-8.797 29.288-39.45 46.027-68.767 37.737l-0.888-0.259 71.802-239.068c8.709-28.995 38.839-45.69 67.887-37.978l0.88 0.242zM848.08 175.92H175.92v158.802h672.16V175.92z m-422.472 49.938c0 30.889-25.04 55.93-55.93 55.93H220.864c0-30.89 25.04-55.93 55.93-55.93h148.814z m137.828 0c0 30.889-25.041 55.93-55.93 55.93h-39.95c0-30.89 25.04-55.93 55.93-55.93h39.95z" fill="#0840F8" p-id="23336"></path></svg>