<?xml version="1.0" standalone="no"?><!DOCTYPE svg PUBLIC "-//W3C//DTD SVG 1.1//EN" "http://www.w3.org/Graphics/SVG/1.1/DTD/svg11.dtd"><svg t="1713430006355" class="icon" viewBox="0 0 1024 1024" version="1.1" xmlns="http://www.w3.org/2000/svg" p-id="10251" xmlns:xlink="http://www.w3.org/1999/xlink" width="64" height="64"><path d="M912.36973 600.419122c13.908626 13.547363 27.275357 26.552831 40.461457 39.558299 12.644205 12.644205 25.469042 25.107779 37.932616 37.932616 10.115364 10.476627 10.115364 18.06315 0.180632 28.720409-3.793262 3.973893-8.128418 7.586523-11.560417 11.92168-2.34821 3.070736-3.793262 7.044629-5.418945 10.476627 3.973893 1.445052 7.947786 3.61263 12.102311 4.154524 6.322103 0.722526 12.824837 0.180632 19.14694 0.361263 10.83789 0.361263 16.79873 6.502734 16.798729 16.979362 0.361263 33.59746 0.361263 67.375551 0 100.973011-0.180632 10.657259-6.683366 16.256835-16.979361 17.159993-7.22526 0.541895-14.45052-0.180632-21.675781 0.361263-3.251367 0.361263-7.22526 1.806315-9.212206 4.335156-0.903158 1.264421 1.445052 6.141471 3.431998 8.309049 4.154525 4.877051 9.031575 9.031575 13.366732 13.727995 9.57347 10.115364 10.115364 17.882519 0.541894 27.63662-22.75957 23.120833-45.519139 46.061034-68.639972 68.639972-8.850944 8.670312-17.882519 8.309049-26.914094-0.180632-5.238314-4.877051-10.115364-10.476627-15.534309-15.173046-1.986947-1.625684-5.780208-2.890104-7.767155-2.167578-1.986947 0.722526-3.431999 4.515788-3.61263 7.044628-0.541895 7.22526-0.180632 14.45052-0.180632 21.675781 0 11.921679-6.322103 18.785676-17.882518 18.966308-33.236197 0.541895-66.472394 0.361263-99.708591 0-11.560416-0.180632-18.06315-6.683366-17.701888-18.785677 0.180632-5.96084 0.361263-11.921679-0.180631-17.882519-0.361263-3.793262-2.34821-7.586523-3.61263-11.379784-3.61263 1.625684-7.586523 2.528841-10.657259 4.87705-4.696419 3.61263-8.489681 8.309049-12.824837 12.463574-9.212207 8.489681-18.243782 9.031575-26.914094 0.361263-23.482096-22.940201-46.602928-46.241665-69.723761-69.543129-8.309049-8.489681-8.128418-17.340624 0.180632-25.830305 4.696419-4.877051 9.934733-9.392838 14.269889-14.631152 2.167578-2.528841 2.709473-6.322103 3.973893-9.57347-2.890104-1.083789-5.780208-3.070736-8.850944-3.251367-6.863997-0.541895-13.727994 0.722526-20.41136-0.541895-5.418945-1.083789-13.727994-3.431999-14.992415-7.22526-3.973893-11.199153-11.921679-9.934733-20.41136-9.934732-115.062268 0-230.124537-0.180632-345.186805 0.180631-26.3722 0-46.061034-9.934733-58.524608-33.416828-18.605045-35.584406 7.22526-81.464809 47.325454-84.354913 1.264421-0.180632 2.528841-0.361263 3.793262-0.180632 26.552831 5.96084 39.197037-8.128418 49.493032-30.707355 13.727994-29.98483 30.887987-58.524608 47.686717-89.773858h-15.534309c-67.736814 0-135.473629 0.180632-203.210443 0-45.338508-0.180632-78.935968-26.733463-87.786911-68.820603-1.264421-6.141471-1.445052-12.644205-1.445052-18.966308V89.051332C0.180632 37.571353 35.223143 1.445052 86.883754 0h774.547892c42.629035 0 72.252602 18.243782 86.703122 54.731346 3.793262 9.57347 5.418945 20.591992 5.418945 31.068619 0.361263 143.602046-0.180632 287.204092 0.541895 430.806138 0.180632 36.126301-10.476627 65.207973-41.725878 83.813019zM33.958723 442.185923h885.99753c0.361263-2.528841 0.722526-4.335156 0.722526-5.960839 0-117.952373 0.180632-236.085377-0.180631-354.037749 0-7.586523-3.251367-15.895572-7.044629-22.75957-11.560416-21.314518-31.429882-26.3722-54.189451-26.3722-254.50979 0.180632-508.838949 0-763.348739 0h-9.031575c-32.874934 1.445052-53.647557 22.940201-53.828189 55.815135v340.129124c0.180632 4.154525 0.541895 8.309049 0.903158 13.186099z m0.722526 35.223144c0 20.953255-0.361263 41.364615 0.180631 61.595343 0.180632 4.335156 2.709473 8.850944 4.877051 13.005468 11.199153 20.772623 29.623567 27.997883 52.202505 27.997884 257.038631 0 513.896631 0 770.935262-0.180632 5.418945 0 11.018522-0.541895 16.437467-1.625684 22.037044-4.335156 36.668195-18.605045 40.100194-39.738931 3.070736-19.869466 0.722526-40.461457 0.722526-61.053448H34.681249z m870.282589 480.479802l51.479979-51.479979c-27.094726-13.727994-21.314518-34.500617-9.754101-57.079555 4.335156-8.489681 9.392838-13.727994 19.327571-13.727994 5.057682 0 10.295996 0.722526 15.353678-0.361263 2.890104-0.541895 7.405892-3.793262 7.586523-5.780209 0.541895-20.772623 0.361263-41.364615 0.361263-63.582289-22.217675 2.34821-37.029458-0.180632-47.506086-24.02399-11.018522-25.107779 2.709473-35.765038 13.727995-47.144823l-48.951138-48.951138c-11.199153 15.173046-23.120833 23.482096-46.964191 14.269889-25.107779-9.754101-24.565885-26.3722-23.662727-46.061034h-70.085024c4.154525 22.398307-0.722526 35.945669-23.843359 46.422297-25.107779 11.379785-35.765038-3.431999-47.506086-14.45052-16.79873 16.618098-32.513671 31.971776-48.951137 48.228611 14.45052 12.282942 25.288411 23.843359 14.992415 48.589875-10.295996 24.385253-26.191568 25.107779-46.061034 23.662727v68.278709c36.487564 4.154525 36.487564 4.154525 50.034927 36.668196 8.489681 20.230729-13.005468 25.107779-18.243782 36.1263 16.076204 16.256835 31.791145 32.152408 48.770506 48.951138 11.741048-15.714941 23.843359-24.385253 48.228612-14.631152 25.107779 9.934733 24.385253 26.552831 23.482095 45.338508 2.528841 1.083789 3.251367 1.625684 3.973893 1.625684 13.547363 0.180632 27.275357 0.361263 40.822721 0.361263 23.482096 0 22.75957 0 24.746516-22.940201 0.541895-6.322103 5.780208-15.895572 10.83789-17.521256 13.908626-4.154525 25.649674-19.508203 42.448404-9.754102 3.251367 1.806315 5.96084 4.877051 8.309049 7.767155 3.070736 4.154525 5.599577 8.670312 7.044628 11.199153zM281.604516 732.460751c6.322103 0.361263 9.934733 0.903158 13.547363 0.903158h319.537131c2.167578 0 4.515788 0.541895 6.322103-0.180632 2.528841-0.903158 5.96084-2.34821 6.683366-4.335156 0.722526-1.986947-0.722526-5.599577-2.34821-7.586523-4.515788-5.057682-9.57347-9.57347-14.269889-14.631152-10.295996-10.83789-10.115364-17.521256-0.180631-28.539777 8.128418-8.850944 21.675781-17.882519 22.037043-27.275358 0.361263-10.115364-12.102311-20.41136-18.966308-30.707355-0.180632-0.361263-0.361263-0.903158-0.722526-1.083789-3.793262-1.986947-7.586523-5.599577-11.560416-5.599577-82.729229-0.361263-165.277827-0.361263-248.007056 0-3.61263 0-8.850944 1.986947-10.295996 4.877051-20.230729 36.848827-40.461457 74.42018-61.775974 114.15911z m297.680719 33.958723H221.996119c-22.578938 0-35.403775 9.57347-35.403775 26.010937 0.180632 16.437467 12.824837 25.830305 35.584407 25.830305h357.108484v-51.841242z m288.287882-152.814253l4.696419 14.089258c4.154525-2.167578 8.670312-3.793262 12.282942-6.502734s6.141471-6.502734 11.018522-11.560417c-9.934733 1.445052-17.340624 2.528841-27.997883 3.973893z m-154.8012 0.180632l-1.625683 3.251367c6.322103 3.61263 12.463574 7.22526 18.785676 10.83789 1.445052-4.154525 3.070736-8.489681 5.057683-14.089257h-22.217676z m-53.105662 13.1861c4.877051-4.515788 9.031575-8.489681 13.727994-13.005469H650.454048c3.973893 5.599577 6.683366 9.57347 9.212207 13.005469z" fill="#0083FE" p-id="10252"></path><path d="M119.036162 1022.193685c-32.333039 0-64.666079 0.180632-96.999118 0-15.895572 0-22.037044-6.502734-21.675781-21.495149 1.264421-61.956606 54.911977-113.436585 118.313636-113.617217 63.943553-0.180632 117.59111 50.576821 119.036161 112.533428 0.361263 16.618098-5.057682 22.578938-21.495149 22.578938H119.036162z m82.548597-33.958723c-2.167578-30.887987-35.945669-63.943553-66.291762-64.485447v29.262304H102.598695v-29.623567c-31.791145 2.890104-62.859764 33.778091-66.111131 65.027342 54.911977-0.180632 109.462692-0.180632 165.097195-0.180632zM425.387194 351.147645c-7.586523-3.793262-14.089257-7.044629-20.953255-10.657259l108.198271-216.396542c7.044629 3.61263 13.547363 6.683366 20.953255 10.476627-36.126301 72.07197-71.891339 143.963309-108.198271 216.577174zM567.724819 341.754807c-5.057682-5.418945-10.115364-10.83789-15.353678-16.437467 24.746516-24.746516 49.854295-49.673664 75.142706-74.962075-25.830305-25.649674-50.757453-50.757453-76.045863-75.865231 6.141471-6.322103 11.199153-11.741048 16.79873-17.340625 28.178515 28.178515 55.995766 55.815135 83.632386 83.632387 5.238314 5.238314 6.141471 11.379785 0.722526 16.79873-28.178515 27.997883-56.357029 55.634503-84.896807 84.174281zM369.572059 157.149409c5.780208 6.141471 10.657259 11.199153 16.256835 17.159993-24.565885 24.565885-49.673664 49.673664-74.962074 74.781443 25.649674 25.469042 50.576821 50.215558 75.503968 74.962074-6.322103 5.96084-11.560416 11.018522-17.340624 16.618099-0.903158-0.722526-2.709473-2.167578-4.335156-3.973893l-75.323338-75.323338c-9.212207-9.212207-9.212207-14.269889 0-23.482095 26.3722-26.733463 52.925031-53.286294 80.200389-80.742283zM740.227906 334.168284c0 11.741048 0 11.741048-12.463574 11.741047-11.379785 0-11.379785 0-11.379784-11.921679 0-11.741048 0-11.741048 12.463573-11.741048 11.379785 0 11.379785 0 11.379785 11.92168zM691.818663 322.96913v22.217675h-22.578938v-22.217675h22.578938zM643.048157 345.367437h-22.398307v-22.578938h22.398307v22.578938z" fill="#80BAFF" p-id="10253"></path><path d="M800.73946 902.434997c-56.176398-0.180632-101.695537-45.338508-101.695537-101.334274-0.180632-55.815135 45.157876-101.153643 101.514906-101.695537 56.537661-0.541895 102.237432 45.157876 102.0568 102.237432-0.180632 56.357029-45.157876 100.79238-101.876169 100.792379z m0.541895-169.793614c-37.932616-0.180632-68.45934 29.804198-68.820604 67.375551-0.361263 38.113247 30.165461 69.181866 68.278709 69.362498 37.571353 0.180632 68.639972-30.346093 68.820604-67.556183 0.180632-38.655142-29.98483-69.181866-68.278709-69.181866z" fill="#0083FE" p-id="10254"></path></svg>