<?xml version="1.0" encoding="UTF-8"?>
<svg id="Layer_1" data-name="Layer 1" xmlns="http://www.w3.org/2000/svg" viewBox="0 0 1000 1000">
  <defs>
    <style>
      .cls-1 {
        fill: #4285f4;
      }

      .cls-1, .cls-2, .cls-3, .cls-4 {
        stroke-width: 0px;
      }

      .cls-2 {
        fill: #ea4335;
      }

      .cls-3 {
        fill: #34a853;
      }

      .cls-4 {
        fill: #fbbc04;
      }
    </style>
  </defs>
  <path class="cls-2" d="m952.41,500c0-28.79-9.94-53.12-29.82-73s-44.21-29.82-73-29.82v-164.51c0-22.62-8.05-41.98-24.16-58.09-16.11-16.11-35.47-24.16-58.09-24.16h-164.51v134.68h112.09v317.73h134.68c28.79,0,53.12-9.93,73-29.81,19.88-19.88,29.82-44.21,29.82-73Z"/>
  <path class="cls-1" d="m500,47.59c-28.79,0-53.12,9.94-73,29.82-19.88,19.88-29.82,44.21-29.82,73h-164.51c-22.62,0-41.98,8.05-58.09,24.16-16.11,16.11-24.16,35.47-24.16,58.09v52.42h452.41v-134.68c0-28.79-9.94-53.12-29.82-73-19.88-19.88-44.21-29.82-73-29.82Z"/>
  <path class="cls-3" d="m385.58,714.91h-100.49c13.55-7.89,26.5-22.09,38.75-32.47,54.58-46.24,84.64-111.03,84.64-182.45s-30.06-136.2-84.64-182.45c-12.25-10.38-25.2-24.58-38.75-32.47h-134.68v103.87c32.9,0,61.69,10.45,86.37,31.36,24.68,20.91,37.02,47.47,37.02,79.69s-12.34,58.78-37.02,79.69c-24.68,20.91-53.47,31.36-86.37,31.36v156.29c0,22.62,8.05,41.98,24.16,58.09,16.11,16.11,35.47,24.16,58.09,24.16h152.91v-134.68Z"/>
  <path class="cls-4" d="m714.91,714.91h-329.33v134.68h381.75c22.62,0,41.99-8.05,58.09-24.16,16.11-16.11,24.16-35.47,24.16-58.09v-164.51h-134.68s0,112.09,0,112.09Z"/>
</svg>