<svg xmlns="http://www.w3.org/2000/svg" xmlns:xlink="http://www.w3.org/1999/xlink" zoomAndPan="magnify" viewBox="0 0 206.25 149.999998" preserveAspectRatio="xMidYMid meet" version="1.0"><defs><clipPath id="9c8d70b842"><path d="M 130.035156 61.457031 L 205.503906 61.457031 L 205.503906 136.925781 L 130.035156 136.925781 Z M 130.035156 61.457031 " clip-rule="nonzero"/></clipPath><clipPath id="1c67feb02f"><path d="M 167.769531 61.457031 C 146.929688 61.457031 130.035156 78.351562 130.035156 99.191406 C 130.035156 120.035156 146.929688 136.925781 167.769531 136.925781 C 188.609375 136.925781 205.503906 120.035156 205.503906 99.191406 C 205.503906 78.351562 188.609375 61.457031 167.769531 61.457031 Z M 167.769531 61.457031 " clip-rule="nonzero"/></clipPath><clipPath id="5627e23c29"><path d="M 2.769531 16.023438 L 52.335938 16.023438 L 52.335938 65.589844 L 2.769531 65.589844 Z M 2.769531 16.023438 " clip-rule="nonzero"/></clipPath><clipPath id="04fea21ff8"><path d="M 27.550781 16.023438 C 13.863281 16.023438 2.769531 27.121094 2.769531 40.808594 C 2.769531 54.496094 13.863281 65.589844 27.550781 65.589844 C 41.238281 65.589844 52.335938 54.496094 52.335938 40.808594 C 52.335938 27.121094 41.238281 16.023438 27.550781 16.023438 Z M 27.550781 16.023438 " clip-rule="nonzero"/></clipPath><clipPath id="160c51126f"><path d="M 134.960938 12.550781 L 174.296875 12.550781 L 174.296875 51.886719 L 134.960938 51.886719 Z M 134.960938 12.550781 " clip-rule="nonzero"/></clipPath><clipPath id="9a14d7004d"><path d="M 154.628906 12.550781 C 143.765625 12.550781 134.960938 21.355469 134.960938 32.21875 C 134.960938 43.082031 143.765625 51.886719 154.628906 51.886719 C 165.492188 51.886719 174.296875 43.082031 174.296875 32.21875 C 174.296875 21.355469 165.492188 12.550781 154.628906 12.550781 Z M 154.628906 12.550781 " clip-rule="nonzero"/></clipPath><clipPath id="4b876f571d"><path d="M 39.082031 29.191406 L 144.671875 29.191406 L 144.671875 134.78125 L 39.082031 134.78125 Z M 39.082031 29.191406 " clip-rule="nonzero"/></clipPath><clipPath id="e764aa65f0"><path d="M 91.878906 29.191406 C 62.71875 29.191406 39.082031 52.828125 39.082031 81.988281 C 39.082031 111.144531 62.71875 134.78125 91.878906 134.78125 C 121.035156 134.78125 144.671875 111.144531 144.671875 81.988281 C 144.671875 52.828125 121.035156 29.191406 91.878906 29.191406 Z M 91.878906 29.191406 " clip-rule="nonzero"/></clipPath><clipPath id="67f327d8f0"><path d="M 103 46 L 137 46 L 137 84 L 103 84 Z M 103 46 " clip-rule="nonzero"/></clipPath><clipPath id="b7ce4d9f10"><path d="M 103.234375 34.9375 L 146.535156 53.414062 L 128.058594 96.714844 L 84.757812 78.238281 Z M 103.234375 34.9375 " clip-rule="nonzero"/></clipPath><clipPath id="3983577a34"><path d="M 103.234375 34.9375 L 146.535156 53.414062 L 128.058594 96.714844 L 84.757812 78.238281 Z M 103.234375 34.9375 " clip-rule="nonzero"/></clipPath></defs><g clip-path="url(#9c8d70b842)"><g clip-path="url(#1c67feb02f)"><path fill="#e8f0fe" d="M 130.035156 61.457031 L 205.503906 61.457031 L 205.503906 136.925781 L 130.035156 136.925781 Z M 130.035156 61.457031 " fill-opacity="1" fill-rule="nonzero"/></g></g><g clip-path="url(#5627e23c29)"><g clip-path="url(#04fea21ff8)"><path fill="#e8f0fe" d="M 2.769531 16.023438 L 52.335938 16.023438 L 52.335938 65.589844 L 2.769531 65.589844 Z M 2.769531 16.023438 " fill-opacity="1" fill-rule="nonzero"/></g></g><g clip-path="url(#160c51126f)"><g clip-path="url(#9a14d7004d)"><path fill="#e8f0fe" d="M 134.960938 12.550781 L 174.296875 12.550781 L 174.296875 51.886719 L 134.960938 51.886719 Z M 134.960938 12.550781 " fill-opacity="1" fill-rule="nonzero"/></g></g><g clip-path="url(#4b876f571d)"><g clip-path="url(#e764aa65f0)"><path fill="#1a73e8" d="M 39.082031 29.191406 L 144.671875 29.191406 L 144.671875 134.78125 L 39.082031 134.78125 Z M 39.082031 29.191406 " fill-opacity="1" fill-rule="nonzero"/></g></g><path fill="#e8f0fe" d="M 92.667969 97.859375 Z M 61.5 116.558594 L 61.5 83.835938 C 61.5 82.585938 61.96875 81.496094 62.902344 80.5625 C 63.839844 79.625 64.929688 79.160156 66.175781 79.160156 L 77.085938 79.160156 L 77.085938 71.367188 C 77.085938 70.121094 77.550781 69.03125 78.488281 68.09375 C 79.421875 67.160156 80.511719 66.691406 81.757812 66.691406 L 103.574219 66.691406 C 104.820312 66.691406 105.914062 67.160156 106.847656 68.09375 C 107.78125 69.03125 108.25 70.121094 108.25 71.367188 L 108.25 79.160156 L 119.160156 79.160156 C 120.40625 79.160156 121.496094 79.625 122.429688 80.5625 C 123.367188 81.496094 123.832031 82.585938 123.832031 83.835938 L 123.832031 116.558594 Z M 78.644531 100.195312 L 78.644531 104.871094 L 73.96875 104.871094 L 73.96875 100.195312 L 66.175781 100.195312 L 66.175781 111.882812 L 119.160156 111.882812 L 119.160156 100.195312 L 111.367188 100.195312 L 111.367188 104.871094 L 106.691406 104.871094 L 106.691406 100.195312 Z M 66.175781 83.835938 L 66.175781 95.523438 L 73.96875 95.523438 L 73.96875 90.847656 L 78.644531 90.847656 L 78.644531 95.523438 L 106.691406 95.523438 L 106.691406 90.847656 L 111.367188 90.847656 L 111.367188 95.523438 L 119.160156 95.523438 L 119.160156 83.835938 Z M 81.757812 79.160156 L 103.574219 79.160156 L 103.574219 71.367188 L 81.757812 71.367188 Z M 81.757812 79.160156 " fill-opacity="1" fill-rule="nonzero"/><path fill="#e8f0fe" d="M 74.863281 83.308594 L 63.753906 72.109375 C 63.09375 72.339844 62.429688 72.527344 61.769531 72.671875 C 61.109375 72.8125 60.4375 72.886719 59.746094 72.886719 C 56.960938 72.886719 54.589844 71.914062 52.640625 69.972656 C 50.6875 68.027344 49.710938 65.667969 49.710938 62.894531 C 49.710938 62.003906 49.828125 61.136719 50.0625 60.292969 C 50.296875 59.449219 50.625 58.652344 51.046875 57.898438 L 57.292969 64.140625 L 61.253906 60.4375 L 54.835938 54.019531 C 55.582031 53.585938 56.371094 53.246094 57.203125 53.007812 C 58.039062 52.765625 58.886719 52.644531 59.746094 52.644531 C 62.59375 52.644531 65.015625 53.640625 67.007812 55.632812 C 69 57.625 69.996094 60.046875 69.996094 62.894531 C 69.996094 63.582031 69.925781 64.257812 69.78125 64.917969 C 69.636719 65.578125 69.453125 66.238281 69.222656 66.898438 L 80.375 78.011719 C 80.691406 78.324219 80.851562 78.707031 80.851562 79.152344 C 80.851562 79.597656 80.691406 79.976562 80.375 80.292969 L 77.101562 83.308594 C 76.796875 83.625 76.425781 83.78125 75.992188 83.78125 C 75.554688 83.78125 75.179688 83.625 74.863281 83.308594 Z M 76.070312 80.851562 L 77.792969 79.128906 L 66.035156 67.371094 C 66.496094 66.769531 66.839844 66.058594 67.070312 65.242188 C 67.296875 64.421875 67.414062 63.640625 67.414062 62.894531 C 67.414062 60.738281 66.617188 58.917969 65.023438 57.425781 C 63.429688 55.929688 61.613281 55.171875 59.574219 55.140625 L 63.96875 59.621094 C 64.226562 59.878906 64.347656 60.1875 64.332031 60.546875 C 64.320312 60.90625 64.183594 61.214844 63.925781 61.472656 L 58.195312 66.855469 C 57.929688 67.085938 57.621094 67.199219 57.265625 67.199219 C 56.910156 67.199219 56.617188 67.085938 56.386719 66.855469 L 52.167969 62.679688 C 52.253906 64.890625 53.039062 66.710938 54.519531 68.148438 C 56.003906 69.582031 57.746094 70.300781 59.746094 70.300781 C 60.464844 70.300781 61.226562 70.1875 62.03125 69.957031 C 62.832031 69.726562 63.535156 69.382812 64.140625 68.921875 Z M 65 67.976562 Z M 65 67.976562 " fill-opacity="1" fill-rule="nonzero"/><g clip-path="url(#67f327d8f0)"><g clip-path="url(#b7ce4d9f10)"><g clip-path="url(#3983577a34)"><path fill="#e8f0fe" d="M 105.09375 80.175781 C 104.585938 79.957031 104.234375 79.605469 104.039062 79.117188 C 103.839844 78.625 103.851562 78.128906 104.066406 77.621094 L 113.234375 56.136719 L 104.285156 52.316406 C 105.339844 49.839844 107.113281 48.101562 109.605469 47.101562 C 112.09375 46.101562 114.578125 46.128906 117.054688 47.183594 L 127.796875 51.769531 L 125.503906 57.140625 L 133.167969 54.058594 L 136.75 55.589844 L 130.636719 69.910156 L 127.058594 68.382812 L 123.976562 60.71875 L 114.808594 82.203125 C 114.59375 82.710938 114.242188 83.0625 113.75 83.261719 C 113.261719 83.457031 112.761719 83.445312 112.257812 83.230469 Z M 108.414062 77.359375 L 111.992188 78.886719 L 116.578125 68.144531 L 112.996094 66.617188 Z M 114.523438 63.035156 L 118.105469 64.5625 L 122.6875 53.820312 L 115.527344 50.765625 C 114.75 50.433594 113.953125 50.277344 113.132812 50.300781 C 112.3125 50.320312 111.527344 50.503906 110.78125 50.855469 L 118.34375 54.082031 Z M 115.550781 65.589844 Z M 115.550781 65.589844 " fill-opacity="1" fill-rule="nonzero"/></g></g></g></svg>