<?xml version="1.0" standalone="no"?><!DOCTYPE svg PUBLIC "-//W3C//DTD SVG 1.1//EN" "http://www.w3.org/Graphics/SVG/1.1/DTD/svg11.dtd"><svg t="1713514111239" class="icon" viewBox="0 0 1024 1024" version="1.1" xmlns="http://www.w3.org/2000/svg" p-id="37321" width="128" height="128" xmlns:xlink="http://www.w3.org/1999/xlink"><path d="M678.912 301.568c17.408-23.552-16.384-72.192-52.736-54.272-34.816 17.408-59.904 45.568-81.408 73.216 18.432 1.536 37.376 2.048 56.32 1.024 22.528-1.024 64.512-2.56 77.824-19.968zM403.968 247.808c-25.088-10.24-39.936 1.024-50.688 19.456-5.632 10.24-11.776 24.576-2.56 34.816 24.064 26.112 90.624 24.576 135.168 19.456-20.992-28.16-47.104-59.392-81.92-73.728z" fill="#dc3f36" p-id="37322"></path><path d="M512.512 1.024C231.936 1.024 4.608 228.864 4.608 508.928c0 280.576 227.328 507.904 507.904 507.904 280.576 0 507.904-227.328 507.904-507.904 0-280.064-227.328-507.904-507.904-507.904z m-26.624 799.744H266.24c-13.824 0-18.432-4.096-18.432-19.456V508.928h238.08v291.84z m291.84-19.456c0 15.36-4.608 19.456-18.432 19.456h-219.648v-291.84h238.08v272.384z m26.624-298.496h-265.216V350.208H485.888v132.608H220.672V376.32c0-17.408 10.24-26.624 26.624-26.624h132.608c-32.768-7.168-64.512-30.72-65.536-58.368-1.024-32.256 33.792-84.48 83.968-72.704 52.224 12.288 88.576 54.784 116.224 91.648 28.16-37.376 68.096-84.992 122.368-92.672 45.568-6.144 82.944 41.984 78.336 73.728-4.096 27.648-37.888 51.2-70.144 58.88h132.608c16.384 0 26.624 9.216 26.624 26.624v105.984z" fill="#dc3f36" p-id="37323"></path></svg>